<?xml version="1.0" encoding="UTF-8" standalone="no"?>
<!-- Created with Inkscape (http://www.inkscape.org/) -->

<svg
   width="135.43748mm"
   height="129.5593mm"
   viewBox="0 0 135.43749 129.5593"
   version="1.1"
   id="svg1"
   xml:space="preserve"
   inkscape:version="1.4 (e7c3feb1, 2024-10-09)"
   sodipodi:docname="logo1.svg"
   inkscape:export-filename="logo1.png"
   inkscape:export-xdpi="600"
   inkscape:export-ydpi="600"
   xmlns:inkscape="http://www.inkscape.org/namespaces/inkscape"
   xmlns:sodipodi="http://sodipodi.sourceforge.net/DTD/sodipodi-0.dtd"
   xmlns="http://www.w3.org/2000/svg"
   xmlns:svg="http://www.w3.org/2000/svg"><sodipodi:namedview
     id="namedview1"
     pagecolor="#ffffff"
     bordercolor="#000000"
     borderopacity="0.25"
     inkscape:showpageshadow="2"
     inkscape:pageopacity="0.0"
     inkscape:pagecheckerboard="0"
     inkscape:deskcolor="#d1d1d1"
     inkscape:document-units="mm"
     inkscape:zoom="0.74475309"
     inkscape:cx="245.04766"
     inkscape:cy="439.07169"
     inkscape:window-width="1920"
     inkscape:window-height="1027"
     inkscape:window-x="0"
     inkscape:window-y="25"
     inkscape:window-maximized="1"
     inkscape:current-layer="layer1" /><defs
     id="defs1" /><g
     inkscape:label="Layer 1"
     inkscape:groupmode="layer"
     id="layer1"
     transform="translate(-35.915028,-8.9787243)"><path
       style="fill:#f6f6f6;fill-opacity:1"
       d="m 62.970917,138.44955 c -1.041008,-0.20386 -2.136366,-1.55895 -2.335945,-2.88983 -0.273018,-1.82062 0.03923,-6.1505 0.546157,-7.57345 0.612403,-1.71903 2.478967,-3.71748 4.313623,-4.61842 1.508816,-0.74093 1.508816,-0.74093 12.290586,-0.81823 10.781771,-0.0773 10.781771,-0.0773 10.781771,-5.49011 0,-5.4128 0,-5.4128 -21.232812,-5.4148 -13.324748,-0.001 -21.859731,-0.10372 -22.916064,-0.27513 -4.028192,-0.65363 -7.088076,-3.39683 -8.093145,-7.25555 -0.330456,-1.26871 -0.41006,-3.27726 -0.41006,-10.346603 0,-8.47404 0.01864,-8.79597 0.54837,-9.46941 0.758369,-0.96411 2.113641,-0.96411 2.87201,0 0.509558,0.6478 0.54837,1.04105 0.54837,5.55625 0,4.85911 0,4.85911 63.764582,4.85911 63.76458,0 63.76458,0 63.75877,-38.56302 -0.006,-37.00183 -0.0257,-38.60586 -0.49686,-39.62135 -0.27007,-0.58208 -0.89298,-1.44022 -1.38423,-1.90698 -1.88861,-1.79441 2.92072,-1.66505 -61.8448,-1.66342 -37.898871,9.5e-4 -58.971727,0.0942 -59.58142,0.26353 -1.282799,0.35636 -3.124414,1.98745 -3.717004,3.2921 -0.464064,1.02169 -0.487695,2.488 -0.493227,30.60461 -0.0058,29.47125 -0.0069,29.53292 -0.554181,30.22864 -0.760963,0.96741 -2.113614,0.96414 -2.877471,-0.007 -0.553831,-0.70408 -0.553831,-0.70408 -0.482224,-30.62552 0.07161,-29.92144 0.07161,-29.92144 0.709948,-31.50698 0.436329,-1.08379 1.106177,-2.05131 2.116666,-3.0573 1.659797,-1.6524 3.20672,-2.4979902 5.293997,-2.8938402 1.955367,-0.37083 117.148706,-0.37083 119.104076,0 2.08727,0.39585 3.6342,1.2414402 5.29399,2.8938402 1.01049,1.00599 1.68034,1.97351 2.11667,3.0573 0.63834,1.58554 0.63834,1.58554 0.70841,44.42629 0.0773,47.233003 0.16334,44.618383 -1.55738,47.299913 -1.54798,2.4123 -3.94857,3.95908 -6.8836,4.43533 -1.05634,0.17141 -9.59132,0.27388 -22.91607,0.27513 -21.23281,0.002 -21.23281,0.002 -21.23281,5.4148 0,5.4128 0,5.4128 10.78177,5.49011 10.78177,0.0773 10.78177,0.0773 12.29059,0.81823 1.89324,0.92971 3.71989,2.92292 4.35951,4.75705 0.6865,1.96855 0.69779,7.94237 0.0169,8.94418 -0.95068,1.39878 -1.19465,1.43284 -10.26313,1.43284 -7.8879,0 -8.43271,-0.0307 -8.95578,-0.50403 -0.72675,-0.6577 -0.74095,-2.09009 -0.0278,-2.80326 0.50484,-0.50484 0.88195,-0.52917 8.20209,-0.52917 7.67291,0 7.67291,0 7.67291,-2.23173 0,-2.51509 -0.24907,-3.38978 -1.2736,-4.47262 -1.51318,-1.59931 1.0561,-1.49773 -37.88473,-1.49773 -38.940826,0 -36.371546,-0.10158 -37.88473,1.49773 -1.02453,1.08284 -1.273603,1.95753 -1.273603,4.47262 0,2.23173 0,2.23173 27.602836,2.23173 27.602837,0 27.602837,0 28.178127,0.61237 0.74167,0.78947 0.75025,2.05768 0.0184,2.72006 -0.5398,0.48856 -1.41906,0.50501 -28.641145,0.53592 -15.446338,0.0175 -28.351131,-0.0204 -28.677318,-0.0843 z m 52.054523,-21.37888 c 0,-5.42396 0,-5.42396 -11.37708,-5.42396 -11.377085,0 -11.377085,0 -11.377085,5.42396 0,5.42396 0,5.42396 11.377085,5.42396 11.37708,0 11.37708,0 11.37708,-5.42396 z m 48.19162,-9.69977 c 1.37238,-0.41118 2.96671,-1.81879 3.64346,-3.21676 0.43016,-0.88861 0.55242,-1.64968 0.55242,-3.43888 0,-2.297713 0,-2.297713 -63.76458,-2.297713 -63.764582,0 -63.764582,0 -63.764582,2.297713 0,1.79489 0.121835,2.54939 0.556746,3.4478 0.631454,1.30441 2.131998,2.67631 3.448272,3.15265 1.259977,0.45596 117.810674,0.50987 119.328264,0.0552 z M 53.88265,86.381387 c -1.631127,-0.52468 -3.611461,-2.31676 -4.377143,-3.96105 -0.894307,-1.92051 -0.872308,-4.57108 0.05336,-6.42864 1.301023,-2.61081 3.799431,-4.13917 6.729082,-4.1164 2.879107,0.0224 5.115182,1.34244 6.495795,3.83477 0.681542,1.23033 0.780246,1.67629 0.780246,3.52519 0,1.84969 -0.09858,2.29462 -0.781566,3.52761 -1.325336,2.39261 -3.346645,3.69382 -6.042438,3.88981 -1.038187,0.0755 -2.089642,-0.0243 -2.857331,-0.27129 z m 4.017633,-3.98398 c 1.719981,-0.88944 2.34712,-3.36455 1.291295,-5.09631 -0.571558,-0.93746 -1.896277,-1.63834 -3.093574,-1.63673 -0.905387,0.001 -2.283186,0.81238 -2.850486,1.67819 -1.929319,2.94451 1.509368,6.68036 4.652765,5.05485 z m 9.40355,3.8301 c -0.505626,-0.39773 -0.69714,-0.79222 -0.69714,-1.436 0,-1.42236 0.946805,-1.98438 3.342973,-1.98438 1.948694,0 1.948694,0 1.948694,-2.36205 0,-2.23661 0.03702,-2.39116 0.697139,-2.91041 0.383427,-0.30161 0.903152,-0.54837 1.154944,-0.54837 0.251792,0 0.771517,0.24676 1.154943,0.54837 0.660121,0.51925 0.69714,0.6738 0.69714,2.91041 0,2.36205 0,2.36205 2.513542,2.36205 2.513541,0 2.513541,0 2.513541,-6.31432 0,-5.98739 0.02839,-6.35041 0.54837,-7.01146 0.71685,-0.91132 1.887179,-0.93147 2.770948,-0.0477 0.649432,0.64943 0.649432,0.64943 0.649432,7.01146 0,6.36203 0,6.36203 2.513541,6.36203 2.513542,0 2.513542,0 2.513542,-9.26042 0,-8.90764 0.02016,-9.28057 0.529167,-9.78958 0.68033,-0.68033 1.965503,-0.68033 2.645833,0 0.509008,0.50901 0.529166,0.88194 0.529166,9.78958 0,9.26042 0,9.26042 2.513542,9.26042 2.513545,0 2.513545,0 2.513545,-3.5362 0,-3.17684 0.0557,-3.60703 0.54837,-4.23333 0.39772,-0.50562 0.79221,-0.69714 1.436005,-0.69714 0.64379,0 1.03828,0.19152 1.43601,0.69714 0.49264,0.6263 0.54837,1.05649 0.54837,4.23333 0,3.5362 0,3.5362 2.51354,3.5362 2.51354,0 2.51354,0 2.51354,-5.14017 0,-5.14018 0,-5.14018 0.69714,-5.68855 0.87946,-0.69178 1.43043,-0.69178 2.30989,0 0.69713,0.54837 0.69713,0.54837 0.69713,5.68855 0,5.14017 0,5.14017 1.99641,5.14017 1.76685,0 2.07107,0.0747 2.64583,0.64943 0.88377,0.88377 0.86362,2.0541 -0.0477,2.77095 -0.69338,0.54541 -0.82373,0.54837 -24.173695,0.54837 -23.349965,0 -23.480312,-0.003 -24.173692,-0.54837 z m 56.043957,-0.10106 c -0.77902,-0.77902 -0.83138,-1.71308 -0.14366,-2.56238 0.44488,-0.5494 0.77139,-0.63549 2.71198,-0.71502 1.94145,-0.0796 2.29353,-0.0217 2.93381,0.4822 0.99473,0.78285 1.00886,2.12665 0.0305,2.89626 -0.57184,0.44981 -1.07334,0.54837 -2.79015,0.54837 -1.86944,0 -2.16239,-0.0694 -2.74245,-0.64943 z m 9.30813,0.10106 c -0.96411,-0.75837 -0.96411,-2.11364 0,-2.87201 0.68167,-0.53621 0.95962,-0.54837 12.53202,-0.54837 11.57241,0 11.85035,0.0122 12.53203,0.54837 0.4943,0.38882 0.69596,0.79297 0.69309,1.38906 -0.01,2.04614 0.0872,2.03132 -13.30433,2.03132 -11.49227,0 -11.77129,-0.0123 -12.45281,-0.54837 z m -9.40919,-9.93835 c -0.3016,-0.38343 -0.54837,-0.90315 -0.54837,-1.15495 0,-0.25179 0.24677,-0.77151 0.54837,-1.15494 0.52271,-0.66452 0.66438,-0.69714 3.02771,-0.69714 2.26213,0 2.51541,0.0515 2.89121,0.58804 0.56758,0.81033 0.51573,1.95394 -0.11729,2.58696 -0.45013,0.45013 -0.88194,0.52917 -2.89121,0.52917 -2.23662,0 -2.39117,-0.037 -2.91042,-0.69714 z m 9.24121,0.16797 c -0.29398,-0.29398 -0.52916,-0.88194 -0.52916,-1.32292 0,-0.44097 0.23518,-1.02893 0.52916,-1.32291 0.51395,-0.51395 0.88195,-0.52917 12.79129,-0.52917 11.54332,0 12.28778,0.0284 12.7,0.48385 0.60246,0.66572 0.55571,2.04415 -0.0913,2.69115 -0.51383,0.51383 -0.88194,0.52917 -12.7,0.52917 -11.81805,0 -12.18617,-0.0153 -12.7,-0.52917 z m -78.657648,-8.12793 c -1.680838,-0.56031 -3.557563,-2.25293 -4.324785,-3.90053 -0.894307,-1.9205 -0.872308,-4.57107 0.05336,-6.42864 1.297585,-2.60391 3.792345,-4.13318 6.729082,-4.12488 2.854284,0.008 5.110908,1.34321 6.495795,3.84325 0.681542,1.23034 0.780246,1.67629 0.780246,3.52519 0,1.87825 -0.09245,2.28058 -0.820811,3.57187 -0.984927,1.74617 -2.552821,3.01706 -4.398262,3.5651 -1.695577,0.50353 -2.89083,0.48993 -4.51462,-0.0514 z m 4.069991,-3.92346 c 1.719981,-0.88943 2.34712,-3.36454 1.291295,-5.0963 -0.571558,-0.93747 -1.896277,-1.63834 -3.093574,-1.63674 -0.905387,10e-4 -2.283186,0.81238 -2.850486,1.67819 -1.929319,2.94451 1.509368,6.68037 4.652765,5.05485 z m 65.811927,2.66498 c -1.25197,-0.70473 -1.23266,-2.63008 0.0332,-3.30753 0.27814,-0.14885 1.46604,-0.27064 2.63977,-0.27064 1.78129,0 2.22154,0.0875 2.66323,0.52916 0.71277,0.71277 0.69898,2.14556 -0.027,2.80253 -0.74476,0.67399 -4.2598,0.83718 -5.30919,0.24648 z m 9.56948,0.20693 c -1.41295,-0.53398 -1.78239,-2.20287 -0.71055,-3.20981 0.61028,-0.57333 0.65349,-0.57529 12.7,-0.57529 11.73486,0 12.10308,0.0154 12.6168,0.52916 0.71305,0.71305 0.69897,2.14551 -0.0276,2.80327 -0.52817,0.47818 -1.16253,0.50656 -12.36927,0.55334 -6.4969,0.0271 -11.99115,-0.0182 -12.20943,-0.10067 z m -66.09971,-10.2183 c -0.709837,-0.75559 -0.737314,-1.77451 -0.0701,-2.59947 0.484565,-0.59912 0.669418,-0.62812 4.52826,-0.7103 4.450134,-0.0948 5.324586,0.0936 5.803719,1.25035 0.363684,0.87801 0.01697,1.97907 -0.752942,2.39111 -0.306554,0.16407 -2.271284,0.28067 -4.729044,0.28067 -4.052927,0 -4.22536,-0.0221 -4.779893,-0.61236 z m 14.626228,-0.0371 c -0.357188,-0.35719 -0.649432,-0.82784 -0.649432,-1.04589 0,-0.77479 0.607906,-1.71268 1.294418,-1.99704 0.483637,-0.20033 5.616829,-0.26646 16.790201,-0.21632 16.093595,0.0722 16.093595,0.0722 16.599275,0.69685 0.72953,0.90111 0.65045,2.00122 -0.19145,2.66346 -0.68809,0.54125 -0.9081,0.54837 -16.945365,0.54837 -16.248216,0 -16.248216,0 -16.897647,-0.64943 z m 41.539582,0 c -0.70421,-0.70422 -0.77997,-1.08944 -0.4071,-2.07015 0.35414,-0.93148 1.56651,-1.32628 3.70222,-1.2056 2.18365,0.12339 2.93462,0.6279 2.93462,1.97151 0,1.50404 -0.77542,1.95367 -3.36921,1.95367 -1.99481,0 -2.27462,-0.0635 -2.86053,-0.64943 z m 9.18627,0.0371 c -0.74169,-0.7895 -0.75025,-2.0577 -0.0183,-2.72007 0.53062,-0.4802 1.12966,-0.50402 12.67222,-0.50402 11.54256,0 12.14161,0.0238 12.67222,0.50402 0.72676,0.65771 0.74095,2.0901 0.0278,2.80327 -0.51377,0.51377 -0.88194,0.52916 -12.65388,0.52916 -12.12471,0 -12.12471,0 -12.7,-0.61236 z m -83.103398,-11.272 c -0.734572,-0.73457 -0.731796,-2.15744 0.0055,-2.82515 0.438738,-0.39732 1.054873,-0.5236 2.910416,-0.5965 2.353854,-0.0925 2.353854,-0.0925 2.353854,-8.79739 0,-8.70493 0,-8.70493 -2.38125,-8.70493 -2.028472,0 -2.459645,-0.0784 -2.910417,-0.52916 -0.712831,-0.71284 -0.698945,-2.14542 0.02717,-2.80327 0.495084,-0.44853 1.080349,-0.51371 5.315626,-0.59195 10.780145,-0.19914 14.05259,0.90423 20.100711,6.77735 3.135046,3.04434 3.135046,3.04434 5.712955,0.54729 3.319869,-3.21575 4.99625,-4.52443 7.053067,-5.50606 3.434457,-1.63912 4.212591,-1.72274 16.030056,-1.72274 11.82938,0 12.49464,0.0717 15.99123,1.72377 2.12469,1.00387 3.73667,2.25505 7.08942,5.50264 2.57545,2.49466 2.57545,2.49466 5.84354,-0.65004 1.79744,-1.72959 3.9324,-3.54008 4.74435,-4.02333 3.55914,-2.11827 7.43701,-2.79281 15.22824,-2.64888 4.23528,0.0782 4.82055,0.14342 5.31563,0.59195 0.72612,0.65785 0.74,2.09043 0.0272,2.80327 -0.45077,0.45077 -0.88194,0.52916 -2.91041,0.52916 -2.38125,0 -2.38125,0 -2.38125,8.70493 0,8.70492 0,8.70492 2.35385,8.79739 1.85554,0.0729 2.47168,0.19918 2.91042,0.5965 0.7373,0.66771 0.74008,2.09058 0.006,2.82515 -0.53685,0.53685 -0.73632,0.5483 -7.73906,0.44452 -6.63706,-0.0984 -7.31984,-0.1526 -8.90781,-0.70754 -3.32677,-1.1626 -4.73877,-2.11856 -8.41215,-5.69528 -3.51737,-3.42481 -3.51737,-3.42481 -6.61459,-0.35496 -3.54757,3.51623 -5.60306,4.93615 -8.63272,5.96348 -2.13741,0.72477 -2.13741,0.72477 -13.91137,0.72477 -11.773965,0 -11.773965,0 -13.911378,-0.72477 -3.029662,-1.02733 -5.085144,-2.44725 -8.632721,-5.96348 -3.097218,-3.06985 -3.097218,-3.06985 -6.614583,0.35496 -3.67338,3.57672 -5.08538,4.53268 -8.412156,5.69528 -1.587971,0.55494 -2.270747,0.60918 -8.907803,0.70754 -7.002743,0.10378 -7.202215,0.0923 -7.739062,-0.44452 z m 13.938504,-12.09137 c 0.06977,-8.4976 0.06977,-8.4976 -0.926041,-8.66219 -0.547694,-0.0905 -1.620885,-0.16589 -2.384869,-0.16749 -1.389062,-0.003 -1.389062,-0.003 -1.389062,8.73863 0,8.74155 0,8.74155 2.315104,8.66511 2.315104,-0.0765 2.315104,-0.0765 2.384868,-8.57406 z m 33.968189,6.40853 c 0.1094,-2.60471 0.54431,-3.33488 1.98639,-3.33488 1.533835,0 1.943365,0.69697 1.943365,3.30729 0,2.24896 0,2.24896 2.38125,2.24896 2.38125,0 2.38125,0 2.38125,-8.73125 0,-8.73125 0,-8.73125 -2.38125,-8.73125 -2.38125,0 -2.38125,0 -2.38125,2.64584 0,3.04218 -0.3473,3.70416 -1.943365,3.70416 -1.50777,0 -1.87868,-0.69756 -1.98403,-3.73131 -0.0909,-2.61869 -0.0909,-2.61869 -1.488286,-2.61869 -0.768538,0 -1.769412,0.0744 -2.224164,0.16537 -0.826823,0.16536 -0.826823,0.16536 -0.826823,8.73125 0,8.56588 0,8.56588 2.221807,8.56588 2.221806,0 2.221806,0 2.315106,-2.22137 z m 17.158925,-6.34451 c 0,-8.56589 0,-8.56589 -0.82682,-8.73125 -0.45476,-0.0909 -1.46679,-0.16537 -2.24896,-0.16537 -1.42214,0 -1.42214,0 -1.42214,8.73125 0,8.73125 0,8.73125 2.24896,8.73125 2.24896,0 2.24896,0 2.24896,-8.56588 z m 34.13125,-0.16537 c 0,-8.73125 0,-8.73125 -1.38907,-8.72833 -0.76398,0.002 -1.83554,0.0767 -2.38125,0.16691 -0.99218,0.16399 -0.99218,0.16399 -0.99218,8.55194 0,4.61338 0.0794,8.46733 0.17639,8.56434 0.097,0.097 1.16857,0.17639 2.38125,0.17639 2.20486,0 2.20486,0 2.20486,-8.73125 z m -80.010014,6.37834 c 0.567537,-0.42098 2.279802,-2.02821 3.805034,-3.57163 2.773148,-2.80621 2.773148,-2.80621 0.264583,-5.33701 -2.516067,-2.53837 -4.704213,-4.34886 -5.255992,-4.34886 -0.209891,0 -0.295281,2.02759 -0.295281,7.01145 0,3.85631 0.101198,7.01146 0.224885,7.01146 0.123688,0 0.689234,-0.34444 1.256771,-0.76541 z m 20.214176,-6.24605 c 0,-3.92014 -0.103821,-7.01145 -0.235477,-7.01145 -0.498883,0 -3.43492,2.42053 -5.579953,4.60023 -2.243555,2.27981 -2.243555,2.27981 0.396875,4.95317 2.449966,2.48051 4.750588,4.44743 5.220118,4.46295 0.10914,0.004 0.198437,-3.14859 0.198437,-7.0049 z m 31.040868,6.23863 c 0.60831,-0.42505 2.35379,-2.03214 3.87885,-3.57131 2.77284,-2.79849 2.77284,-2.79849 0.52917,-5.07842 -2.14514,-2.1798 -5.08118,-4.60035 -5.58008,-4.60035 -0.13165,0 -0.23547,3.09131 -0.23547,7.01145 0,3.85631 0.0678,7.01146 0.15076,7.01146 0.0829,0 0.64847,-0.34777 1.25677,-0.77283 z m 20.2883,-6.23863 c 0,-3.8563 -0.0987,-7.01145 -0.21922,-7.01145 -0.57517,0 -2.80842,1.81256 -5.19989,4.22037 -2.64099,2.65903 -2.64099,2.65903 0.13229,5.46537 2.65567,2.68733 4.58121,4.33717 5.06193,4.33717 0.12369,0 0.22489,-3.15515 0.22489,-7.01146 z"
       id="path1" /></g></svg>
